<?xml version="1.0" standalone="no"?>
<!DOCTYPE svg PUBLIC "-//W3C//DTD SVG 20010904//EN"
 "http://www.w3.org/TR/2001/REC-SVG-20010904/DTD/svg10.dtd">
<svg version="1.0" xmlns="http://www.w3.org/2000/svg"
 width="400.000000pt" height="400.000000pt" viewBox="0 0 400.000000 400.000000"
 preserveAspectRatio="xMidYMid meet">
<metadata>
Created by potrace 1.14, written by Peter Selinger 2001-2017
</metadata>
<g transform="translate(0.000000,400.000000) scale(0.100000,-0.100000)"
fill="#000000" stroke="none">
<path d="M1828 3995 c-2 -1 -29 -5 -62 -9 -117 -12 -314 -59 -431 -102 -66
-24 -124 -45 -130 -47 -5 -1 -12 -4 -15 -7 -3 -3 -25 -14 -50 -25 -43 -19
-230 -123 -240 -135 -3 -3 -25 -18 -50 -35 -68 -44 -180 -138 -259 -216 -116
-115 -219 -247 -294 -373 -23 -39 -44 -73 -47 -76 -8 -7 -94 -193 -119 -256
-38 -97 -84 -270 -106 -399 -21 -123 -28 -398 -13 -530 18 -161 55 -320 106
-460 27 -72 41 -106 76 -185 37 -84 169 -301 188 -308 4 -2 8 -10 8 -17 0 -7
3 -15 8 -17 4 -1 20 -21 36 -42 55 -73 189 -212 260 -270 21 -17 46 -39 55
-48 8 -10 19 -18 24 -18 5 0 15 -7 24 -16 23 -23 161 -114 173 -114 5 0 10 -4
10 -9 0 -5 15 -14 33 -22 17 -7 48 -22 67 -34 62 -38 291 -129 380 -151 8 -2
42 -10 75 -19 33 -8 80 -17 104 -21 25 -3 48 -7 51 -9 29 -18 413 -27 540 -12
97 11 284 51 380 82 101 33 265 101 300 125 14 10 29 18 33 18 12 1 197 116
255 160 202 152 403 374 513 570 18 31 35 59 39 62 9 8 97 200 125 275 27 73
70 218 79 270 3 17 8 41 11 55 40 201 42 484 5 714 -6 38 -13 73 -15 77 -3 3
-7 24 -11 45 -19 123 -156 452 -248 594 -40 62 -107 157 -134 188 -9 11 -31
37 -48 59 -41 49 -150 158 -203 203 -23 19 -52 43 -63 52 -59 50 -205 148
-218 148 -6 0 -10 4 -10 9 0 5 -15 14 -32 22 -18 7 -49 22 -68 34 -61 38 -278
124 -380 151 -58 16 -244 54 -290 59 -55 7 -416 16 -422 10z"/>
</g>
</svg>
