<?xml version="1.0" standalone="no"?>
<!DOCTYPE svg PUBLIC "-//W3C//DTD SVG 20010904//EN"
 "http://www.w3.org/TR/2001/REC-SVG-20010904/DTD/svg10.dtd">
<svg version="1.0" xmlns="http://www.w3.org/2000/svg"
 width="2000.000000pt" height="2000.000000pt" viewBox="0 0 2000.000000 2000.000000"
 preserveAspectRatio="xMidYMid meet">
<metadata>
Created by potrace 1.14, written by Peter Selinger 2001-2017
</metadata>
<g transform="translate(0.000000,2000.000000) scale(0.100000,-0.100000)"
fill="#000000" stroke="none">
<path d="M9629 19965 c-2 -2 -69 -6 -149 -10 -80 -3 -167 -8 -195 -10 -200
-16 -228 -19 -325 -29 -25 -3 -72 -8 -105 -11 -33 -4 -67 -8 -75 -10 -8 -2
-44 -7 -80 -10 -36 -4 -74 -9 -85 -11 -11 -2 -36 -6 -55 -9 -19 -3 -48 -7 -65
-9 -382 -55 -872 -164 -1325 -296 -41 -12 -79 -23 -85 -24 -5 -2 -17 -6 -25
-9 -8 -3 -67 -22 -130 -42 -63 -20 -124 -40 -135 -45 -11 -5 -45 -16 -75 -26
-30 -9 -125 -44 -210 -76 -85 -33 -159 -60 -165 -62 -5 -1 -19 -7 -30 -13 -11
-6 -24 -12 -30 -13 -19 -4 -223 -88 -240 -98 -5 -4 -12 -7 -15 -8 -3 0 -18 -7
-35 -14 -16 -7 -32 -14 -35 -15 -19 -7 -195 -89 -355 -165 -49 -24 -93 -47
-96 -52 -3 -6 -8 -8 -10 -7 -4 3 -52 -21 -219 -107 -30 -16 -56 -32 -58 -36
-2 -5 -9 -8 -17 -8 -7 0 -18 -7 -25 -15 -6 -8 -15 -14 -18 -13 -4 1 -42 -18
-85 -42 -102 -58 -96 -55 -217 -128 -138 -83 -136 -82 -192 -119 -26 -18 -52
-33 -58 -33 -5 0 -10 -4 -10 -10 0 -5 -6 -10 -14 -10 -8 0 -21 -6 -28 -12 -23
-22 -108 -78 -117 -78 -5 0 -11 -4 -13 -8 -1 -4 -38 -31 -80 -59 -42 -28 -83
-56 -90 -62 -7 -6 -44 -34 -83 -61 -38 -27 -83 -60 -99 -72 -16 -13 -33 -25
-39 -27 -5 -2 -17 -11 -27 -20 -9 -9 -27 -23 -39 -31 -13 -8 -31 -22 -41 -31
-10 -8 -31 -24 -46 -35 -14 -10 -58 -45 -98 -77 -39 -32 -83 -68 -99 -80 -26
-21 -89 -74 -129 -109 -10 -9 -38 -31 -60 -50 -23 -18 -56 -46 -74 -63 -17
-16 -49 -45 -70 -64 -112 -97 -592 -561 -580 -561 1 0 -25 -29 -58 -63 -34
-35 -86 -91 -116 -125 -30 -34 -66 -75 -80 -90 -14 -15 -47 -54 -75 -86 -27
-32 -55 -64 -60 -70 -6 -6 -49 -58 -95 -116 -47 -58 -88 -107 -91 -110 -3 -3
-58 -75 -122 -160 -64 -85 -121 -159 -125 -165 -4 -5 -38 -53 -75 -105 -36
-52 -70 -99 -75 -105 -85 -107 -532 -833 -532 -865 0 -4 -3 -10 -7 -12 -5 -2
-28 -41 -52 -88 -106 -207 -162 -320 -161 -326 1 -4 -2 -10 -7 -13 -4 -3 -21
-35 -38 -71 -16 -36 -33 -66 -37 -68 -5 -2 -8 -10 -8 -17 0 -7 -23 -62 -51
-122 -28 -59 -52 -112 -53 -118 -1 -5 -9 -26 -18 -45 -8 -19 -27 -64 -42 -100
-15 -36 -31 -74 -36 -85 -44 -93 -246 -656 -265 -735 -2 -8 -10 -35 -18 -60
-16 -48 -59 -188 -63 -205 -1 -5 -9 -37 -18 -70 -18 -62 -64 -239 -70 -265 -2
-8 -9 -35 -16 -60 -7 -25 -14 -54 -16 -65 -2 -11 -13 -60 -24 -110 -11 -49
-30 -137 -41 -195 -12 -58 -23 -114 -25 -125 -2 -11 -6 -33 -9 -50 -3 -16 -8
-41 -10 -55 -11 -53 -15 -76 -20 -115 -3 -22 -10 -65 -15 -95 -14 -82 -18
-110 -25 -169 -4 -30 -8 -61 -10 -70 -1 -9 -6 -43 -9 -76 -4 -33 -9 -71 -11
-85 -3 -14 -7 -54 -10 -90 -3 -36 -8 -83 -10 -105 -10 -88 -22 -244 -32 -420
-16 -263 -8 -1053 12 -1250 7 -66 17 -177 21 -225 3 -47 10 -117 19 -185 2
-22 7 -62 10 -90 3 -27 8 -61 10 -75 3 -25 9 -68 20 -145 3 -22 10 -65 15 -95
5 -30 12 -73 15 -95 3 -22 10 -62 15 -90 5 -27 12 -63 15 -80 3 -16 7 -41 10
-55 3 -14 12 -59 20 -100 8 -41 22 -106 30 -145 9 -38 19 -83 21 -100 3 -16
17 -73 30 -125 14 -52 27 -104 28 -115 2 -11 4 -20 5 -20 2 0 4 -9 6 -21 5
-24 24 -94 60 -219 14 -49 28 -101 30 -113 3 -13 12 -43 21 -65 8 -23 17 -52
19 -64 7 -31 138 -416 170 -498 15 -38 28 -74 29 -80 2 -5 8 -23 14 -38 7 -16
12 -31 12 -34 0 -3 7 -19 15 -36 8 -18 39 -93 69 -167 29 -74 66 -162 81 -195
15 -33 34 -76 42 -95 86 -192 203 -431 221 -452 8 -10 12 -18 7 -18 -4 0 -3
-6 3 -12 5 -7 28 -49 51 -93 23 -44 46 -87 51 -95 5 -8 46 -80 91 -160 115
-204 111 -198 159 -275 83 -136 312 -484 371 -566 37 -49 319 -424 349 -462
28 -37 218 -266 235 -283 5 -6 33 -37 60 -69 159 -186 506 -543 700 -720 48
-44 109 -100 135 -125 27 -25 68 -61 91 -80 24 -19 52 -44 63 -55 19 -18 160
-136 210 -175 10 -8 26 -22 36 -30 9 -8 45 -37 81 -65 35 -27 70 -55 77 -62 7
-7 17 -13 20 -13 4 0 18 -10 32 -23 68 -62 559 -407 580 -407 5 0 10 -5 10
-10 0 -6 10 -15 23 -21 30 -14 115 -66 127 -79 3 -3 21 -14 40 -24 19 -11 37
-22 40 -25 3 -3 19 -13 35 -22 17 -9 91 -52 165 -96 227 -134 544 -304 564
-302 5 0 12 -3 15 -8 10 -13 49 -33 66 -33 8 0 15 -4 15 -9 0 -5 10 -13 23
-17 12 -3 73 -31 135 -60 62 -30 114 -54 117 -54 2 0 32 -13 67 -29 81 -37
118 -53 198 -85 95 -39 103 -42 130 -55 57 -25 444 -167 480 -176 8 -2 32 -10
52 -19 21 -9 47 -16 58 -16 11 0 20 -4 20 -10 0 -5 3 -9 8 -8 9 2 82 -18 153
-43 30 -10 64 -19 75 -19 11 0 24 -4 30 -8 5 -5 47 -19 94 -31 47 -13 96 -27
110 -31 22 -8 325 -84 375 -94 11 -3 74 -17 140 -31 125 -28 128 -28 185 -39
19 -3 46 -8 60 -11 30 -6 124 -23 165 -29 17 -3 68 -12 115 -20 47 -8 105 -17
130 -20 51 -7 114 -16 150 -21 26 -4 88 -11 167 -20 27 -3 71 -8 98 -11 56 -7
87 -10 195 -18 41 -4 98 -8 125 -11 321 -27 1109 -27 1425 0 25 2 81 7 125 10
44 4 94 8 110 10 87 8 173 17 195 20 14 2 50 6 80 10 62 7 86 11 150 20 25 4
56 8 70 10 25 3 90 13 145 21 17 3 82 14 145 26 63 11 124 22 135 24 11 1 56
10 100 20 44 9 87 17 95 18 8 2 29 6 45 9 17 4 39 9 50 12 11 2 40 9 65 16 25
6 56 13 70 15 14 3 111 28 215 55 214 56 195 51 255 69 25 7 50 14 55 15 52
11 517 165 645 214 41 16 118 45 170 65 52 20 104 41 115 46 11 5 49 21 85 36
36 15 81 34 100 42 19 9 40 17 45 18 6 1 55 23 110 49 55 25 141 65 190 88 50
23 92 44 95 47 3 3 12 6 20 8 8 2 16 8 18 13 2 5 10 9 17 9 7 0 55 22 106 49
52 27 132 69 179 93 47 23 87 45 90 48 3 3 25 16 50 29 69 38 328 189 392 230
109 69 523 343 528 349 3 4 28 23 55 42 28 19 55 38 60 43 6 4 39 29 75 55 36
25 67 49 70 52 3 3 43 34 90 70 47 35 91 70 98 77 8 7 30 26 50 41 20 15 47
36 59 47 12 11 28 25 35 30 28 21 123 101 138 115 9 8 40 35 69 60 30 25 76
66 103 93 28 26 51 47 53 47 6 0 199 185 351 337 84 84 151 153 150 153 -2 0
29 33 68 74 39 41 98 105 131 142 33 37 70 78 82 91 11 13 36 42 55 65 18 23
49 59 68 81 44 50 59 68 90 108 14 18 30 37 35 43 36 39 308 398 375 496 13
19 27 37 30 40 3 3 19 26 35 52 17 27 33 48 38 48 4 0 7 4 7 8 0 7 159 254
180 279 5 7 10 14 10 17 0 3 20 37 45 75 25 38 45 74 45 80 0 6 5 11 10 11 6
0 10 7 10 15 0 8 5 15 10 15 6 0 10 9 10 20 0 11 4 20 9 20 5 0 19 19 31 43
12 23 29 56 39 72 108 180 381 709 412 797 7 21 17 38 21 38 4 0 7 3 6 7 0 5
7 26 17 48 10 22 19 42 20 45 1 3 7 19 14 35 7 17 12 32 13 35 0 3 3 10 8 15
5 6 23 46 40 90 17 44 36 85 41 91 5 6 10 19 12 30 4 17 15 50 34 94 3 8 7 17
8 20 1 3 6 16 12 30 31 74 128 346 173 485 29 88 54 167 57 175 4 8 7 20 9 25
1 6 12 44 24 85 40 138 113 405 125 460 2 8 11 47 20 85 9 39 18 77 20 85 2 8
8 35 14 60 5 25 12 56 14 70 3 14 12 59 20 100 19 92 26 125 33 170 3 19 7 42
9 50 3 8 7 33 10 55 3 22 8 51 11 65 6 32 11 64 19 115 3 22 10 67 15 100 5
33 12 83 15 110 3 28 7 64 9 80 2 17 7 54 10 83 3 28 9 76 12 105 3 28 8 68 9
87 6 66 16 185 20 235 27 333 27 1104 0 1420 -2 22 -6 76 -9 120 -8 104 -14
169 -20 214 -3 20 -8 65 -12 101 -3 36 -7 72 -9 80 -1 8 -6 44 -10 80 -4 36
-9 74 -11 85 -2 10 -6 37 -9 60 -3 22 -8 51 -10 65 -3 14 -7 41 -9 60 -3 19
-14 87 -25 150 -20 112 -25 139 -36 190 -3 14 -8 43 -11 65 -3 22 -8 43 -10
46 -2 3 -11 41 -20 85 -9 43 -18 86 -20 94 -2 8 -10 44 -18 80 -8 36 -26 110
-41 165 -14 55 -32 126 -40 157 -8 32 -35 126 -61 210 -25 84 -47 158 -48 163
-2 6 -5 17 -8 25 -16 44 -110 327 -113 340 -2 8 -12 36 -24 63 -11 26 -21 49
-21 52 -3 28 -134 355 -221 550 -96 219 -117 263 -219 465 -117 234 -143 283
-151 290 -3 3 -8 13 -12 22 -3 9 -41 77 -83 150 -42 73 -85 149 -96 168 -11
19 -29 47 -39 62 -11 14 -19 31 -19 37 0 6 -4 11 -10 11 -5 0 -10 5 -10 11 0
15 -238 381 -252 387 -5 2 -8 8 -8 12 0 5 -14 29 -30 52 -17 24 -38 54 -48 68
-9 14 -22 31 -29 38 -7 7 -13 16 -13 20 0 4 -10 19 -23 34 -12 15 -33 43 -47
63 -29 41 -194 257 -230 302 -14 17 -36 45 -50 63 -14 18 -42 51 -62 74 -21
22 -38 44 -38 47 0 4 -12 20 -27 36 -16 17 -47 52 -70 79 -65 77 -80 94 -156
178 -222 245 -514 537 -737 736 -34 30 -72 64 -84 75 -12 11 -49 43 -81 70
-32 28 -72 62 -89 77 -63 54 -269 220 -311 250 -5 4 -26 21 -46 38 -20 16 -40
30 -43 30 -4 0 -17 9 -29 21 -12 12 -33 28 -47 37 -25 16 -101 73 -110 82 -3
3 -12 10 -21 15 -32 19 -134 89 -139 95 -3 3 -75 52 -160 108 -85 56 -160 105
-166 109 -23 17 -50 34 -74 45 -14 7 -31 19 -39 26 -7 7 -39 26 -71 42 -32 16
-61 34 -64 39 -3 5 -25 19 -48 31 -24 12 -74 41 -113 63 -38 22 -71 39 -71 36
-1 -2 -10 3 -20 11 -23 18 -45 31 -149 86 -180 95 -586 294 -600 294 -2 0 -32
13 -67 29 -106 48 -263 115 -358 151 -191 74 -426 160 -445 164 -5 1 -30 9
-55 18 -92 34 -301 98 -318 98 -10 0 -22 4 -28 9 -5 4 -29 13 -54 20 -25 6
-67 18 -95 25 -60 18 -244 67 -265 71 -8 2 -46 11 -85 20 -91 22 -78 19 -245
55 -80 18 -154 33 -165 35 -18 2 -54 8 -120 22 -39 8 -191 33 -230 39 -22 3
-62 9 -90 14 -48 8 -95 15 -180 25 -22 3 -53 7 -70 9 -16 3 -57 8 -90 11 -33
4 -73 8 -90 10 -115 14 -186 20 -345 30 -52 4 -122 9 -155 11 -71 6 -911 14
-916 9z"/>
</g>
</svg>
